<svg width="150" height="150" viewBox="0 0 150 150" fill="none" xmlns="http://www.w3.org/2000/svg">
<rect x="10" y="10" width="130" height="130" fill="black" stroke="url(#paint0_linear_4_23)" stroke-width="20"/>
<path d="M53.3 98.91C38.74 98.91 27.75 87.57 27.75 73.57C27.75 59.5 38.18 48.09 53.3 48.09C61.28 48.09 66.81 50.54 71.22 55.79L64.29 61.81C61.35 58.73 57.71 57.19 53.3 57.19C43.85 57.19 37.9 64.61 37.9 73.57C37.9 82.53 43.85 89.81 53.51 89.81C58.27 89.81 61.84 88.2 64.71 85.05L71.85 91.14C68.14 95.62 61.84 98.91 53.3 98.91ZM110.705 101.99L107.205 96.81C104.055 98.14 100.555 98.91 96.8449 98.91C82.2849 98.91 71.2949 87.57 71.2949 73.57C71.2949 59.5 82.2849 48.09 96.8449 48.09C111.335 48.09 122.255 59.5 122.255 73.57C122.255 80.78 119.385 87.29 114.625 91.84L121.345 101.99H110.705ZM81.4449 73.57C81.4449 82.46 87.3249 89.81 96.8449 89.81C98.9449 89.81 100.835 89.46 102.515 88.83L96.6349 79.94H107.275L109.445 83.16C111.195 80.43 112.105 77.14 112.105 73.57C112.105 64.68 106.295 57.19 96.8449 57.19C87.3249 57.19 81.4449 64.68 81.4449 73.57Z" fill="white"/>
<defs>
<linearGradient id="paint0_linear_4_23" x1="75" y1="0" x2="75" y2="150" gradientUnits="userSpaceOnUse">
<stop stop-color="#2AF598"/>
<stop offset="1" stop-color="#009EFD"/>
</linearGradient>
</defs>
</svg>
